<?xml version="1.0" standalone="no"?>
<!DOCTYPE svg PUBLIC "-//W3C//DTD SVG 20010904//EN"
 "http://www.w3.org/TR/2001/REC-SVG-20010904/DTD/svg10.dtd">
<svg version="1.0" xmlns="http://www.w3.org/2000/svg"
 width="1024.000000pt" height="1024.000000pt" viewBox="0 0 1024.000000 1024.000000"
 preserveAspectRatio="xMidYMid meet">

<g transform="translate(0.000000,1024.000000) scale(0.100000,-0.100000)"
fill="#000000" stroke="none">
<path d="M4740 8664 c-585 -70 -1114 -261 -1627 -585 -451 -285 -855 -697
-1150 -1172 -214 -344 -368 -726 -453 -1122 -59 -269 -74 -423 -74 -740 0
-281 7 -365 50 -614 111 -637 402 -1236 845 -1736 427 -484 968 -840 1609
-1060 237 -81 462 -133 745 -171 181 -25 624 -25 817 -1 426 53 829 173 1215
362 614 300 1147 772 1498 1325 335 529 517 1108 554 1757 51 898 -298 1839
-953 2565 -408 452 -1018 843 -1616 1036 -400 129 -684 173 -1101 171 -139 -1
-294 -7 -359 -15z m780 -419 c914 -127 1803 -693 2325 -1479 251 -380 417
-813 490 -1286 26 -165 31 -519 10 -725 -58 -584 -253 -1099 -587 -1545 -181
-241 -335 -404 -573 -601 -312 -259 -665 -453 -1060 -585 -282 -93 -506 -137
-835 -164 -242 -20 -603 11 -900 76 -391 86 -872 305 -1219 554 -734 525
-1187 1278 -1307 2175 -22 166 -26 613 -6 755 87 614 303 1122 681 1600 96
122 401 426 511 511 108 83 344 244 435 296 375 217 858 379 1260 422 55 6
116 13 135 15 82 10 531 -4 640 -19z"/>
<path d="M4984 7847 c-248 -250 -427 -577 -513 -932 -45 -183 -54 -281 -48
-482 10 -305 55 -457 259 -863 136 -270 203 -427 279 -645 45 -127 44 -135 24
190 -29 473 -16 1111 30 1481 19 157 72 485 80 492 3 3 5 -10 5 -29 0 -20 4
-60 10 -90 20 -108 69 -467 82 -599 17 -176 17 -999 0 -1240 -6 -96 -14 -209
-17 -250 l-5 -75 63 170 c96 256 129 332 238 545 187 363 250 538 284 778 24
168 16 401 -18 557 -63 284 -213 605 -385 823 -51 66 -250 272 -261 272 -3 0
-52 -46 -107 -103z"/>
<path d="M3017 6124 c-303 -47 -548 -180 -717 -391 -49 -61 -110 -158 -110
-176 0 -2 48 20 108 49 120 60 249 97 396 115 135 16 392 6 518 -21 347 -73
702 -280 989 -576 148 -153 318 -363 217 -267 -135 126 -503 345 -758 449
-246 100 -421 145 -644 165 -264 24 -534 -35 -715 -155 -85 -57 -189 -153
-245 -225 -45 -58 -111 -169 -105 -175 2 -2 49 11 104 30 325 108 702 94 1265
-50 519 -133 873 -299 1198 -565 178 -146 298 -283 426 -483 l58 -93 -7 65
c-82 804 -331 1430 -735 1854 -334 350 -801 519 -1243 450z"/>
<path d="M6785 6125 c-198 -32 -359 -90 -522 -187 -292 -174 -529 -445 -728
-833 -170 -332 -285 -722 -325 -1100 -7 -60 -15 -140 -19 -177 -4 -38 -5 -68
-2 -68 3 0 25 36 49 78 63 115 163 243 282 363 324 325 747 537 1417 708 355
90 619 122 855 103 144 -12 299 -44 398 -81 30 -11 55 -19 56 -18 8 7 -72 131
-125 194 -127 150 -334 282 -514 328 -193 49 -384 52 -605 10 -252 -48 -625
-195 -872 -345 -146 -88 -304 -195 -351 -237 -21 -19 -39 -33 -39 -30 0 15
156 197 253 296 216 219 436 370 697 476 229 94 446 132 702 122 213 -8 348
-40 518 -124 47 -23 87 -40 88 -38 8 8 -74 134 -124 191 -156 179 -380 306
-624 355 -131 26 -350 33 -465 14z"/>
<path d="M3427 4424 c-291 -52 -489 -245 -549 -532 -76 -368 100 -778 444
-1037 89 -68 238 -155 238 -139 0 3 -13 24 -29 47 -75 110 -123 242 -142 387
-31 245 85 495 278 598 160 85 381 83 587 -5 112 -47 197 -108 299 -210 200
-201 323 -431 428 -802 16 -58 36 -147 44 -200 9 -52 18 -97 22 -101 9 -8 -6
319 -23 480 -28 271 -78 460 -171 643 -70 138 -149 243 -282 380 -259 266
-582 449 -868 492 -118 18 -173 18 -276 -1z"/>
<path d="M6505 4426 c-225 -37 -483 -150 -675 -294 -128 -97 -302 -275 -392
-402 -88 -123 -170 -284 -207 -407 -56 -183 -92 -480 -90 -746 l1 -142 23 126
c73 406 226 729 455 959 100 102 179 159 295 215 101 48 174 65 300 72 183 9
301 -33 420 -152 122 -121 171 -259 162 -455 -3 -58 -13 -134 -22 -170 -21
-75 -83 -221 -120 -280 -14 -22 -23 -40 -20 -40 14 0 118 58 192 106 195 129
356 339 439 569 49 138 64 219 64 348 0 139 -17 215 -76 335 -130 269 -428
411 -749 358z"/>
</g>
</svg>
